<svg width="100" height="100" viewBox="0 0 100 100" fill="none" xmlns="http://www.w3.org/2000/svg">
<path d="M99.2582 55.361C98.261 46.281 97.2194 41.6701 94.4418 36.1149C94.4418 36.1149 102.775 11.1164 97.2194 0.839234C95.3473 -2.62167 76.654 5.52784 69.4433 11.1164C69.4433 11.1164 58.3328 8.34434 50 8.34434C41.6672 8.34434 30.5567 11.1164 30.5567 11.1164C23.346 5.52784 4.6527 -2.62167 2.78059 0.839234C-2.77464 11.1164 5.5582 36.1149 5.5582 36.1149C2.78059 41.6701 1.73898 46.281 0.741822 55.361C-0.355335 65.316 1.82787 73.2516 2.78059 75.0015C3.86386 76.9903 9.3552 83.4038 16.6687 88.8895C27.7791 97.2224 44.4448 100 50 100C55.5552 100 72.2209 97.2224 83.3314 88.8895C90.6448 83.4038 96.1361 76.9903 97.2194 75.0015C98.1721 73.2516 100.355 65.316 99.2582 55.361Z" fill="#FFCC4D"/>
<path d="M50 54.1694C58.3328 54.1694 58.3328 55.5582 58.3328 58.3358C58.3328 61.1134 54.1664 66.6686 50 66.6686C45.8336 66.6686 41.6672 61.1134 41.6672 58.3358C41.6672 55.5582 41.6644 54.1694 50 54.1694Z" fill="#E75A70"/>
<path d="M5.5582 8.33879C6.7998 4.61123 21.2239 11.1164 24.0016 13.894C24.0016 13.894 11.1134 22.2268 8.33581 30.5597C8.33581 30.5597 2.78059 16.6716 5.5582 8.33879ZM94.4418 8.33879C93.2002 4.61123 78.7761 11.1164 75.9985 13.894C75.9985 13.894 88.8866 22.2268 91.6642 30.5597C91.6642 30.5597 97.2194 16.6716 94.4418 8.33879Z" fill="#F18F26"/>
<path d="M13.7077 15.5689C13.7077 11.6414 30.5567 19.4492 27.7791 22.2268C25.0015 25.0045 22.2239 26.6794 19.4463 29.457C16.6687 32.2346 13.7077 18.3465 13.7077 15.5689ZM86.2923 15.5689C86.2923 11.6414 69.4433 19.4492 72.2209 22.2268C74.9985 25.0045 77.7761 26.6794 80.5537 29.457C83.3313 32.2346 86.2923 18.3465 86.2923 15.5689Z" fill="#FFCC4D"/>
<path d="M1.95008 69.4463C1.539 69.4463 1.13347 69.2657 0.858483 68.9185C0.383511 68.3158 0.486283 67.4436 1.08902 66.9686C1.539 66.6159 12.255 58.3025 30.665 59.7329C31.4289 59.7885 32.0011 60.4579 31.9427 61.2217C31.8844 61.9856 31.2289 62.6133 30.4512 62.4995C13.1383 61.1829 2.91114 69.0713 2.81114 69.1518C2.55283 69.349 2.25007 69.4463 1.95008 69.4463ZM26.582 56.4943C26.4458 56.4943 26.3042 56.4748 26.1681 56.4331C12.8633 52.2751 1.90009 55.4693 1.78898 55.4999C1.05292 55.7249 0.280739 55.3054 0.0585303 54.5694C-0.160901 53.8333 0.255741 53.0611 0.98903 52.8417C1.46956 52.6973 12.8939 49.378 26.993 53.7805C27.7263 54.0111 28.1346 54.7888 27.9041 55.5221C27.7208 56.1137 27.1736 56.4943 26.582 56.4943ZM98.0499 69.4463C98.461 69.4463 98.8665 69.2657 99.1415 68.9185C99.6165 68.3158 99.5137 67.4436 98.911 66.9686C98.461 66.6159 87.745 58.3025 69.335 59.7329C68.5711 59.7885 67.9989 60.4579 68.0573 61.2217C68.1156 61.9856 68.7711 62.6133 69.5488 62.4995C86.8617 61.1829 97.0889 69.0713 97.1889 69.1518C97.4472 69.349 97.7499 69.4463 98.0499 69.4463ZM73.4181 56.4943C73.5542 56.4943 73.6958 56.4748 73.8319 56.4331C87.1367 52.2751 98.0999 55.4693 98.211 55.4999C98.9471 55.7249 99.7193 55.3054 99.9415 54.5694C100.161 53.8333 99.7443 53.0611 99.011 52.8417C98.5304 52.6973 87.1061 49.378 73.007 53.7805C72.2737 54.0111 71.8654 54.7888 72.0959 55.5221C72.2765 56.1137 72.8264 56.4943 73.4181 56.4943Z" fill="#FEE7B8"/>
<path d="M70.4488 85.1009C69.1072 82.9732 60.9632 70.8351 50 70.8351C38.2396 70.8351 29.7234 84.8009 29.3679 85.3981C29.0318 85.9536 29.1318 86.6675 29.6012 87.1174C29.8623 87.3702 30.2095 87.5007 30.5567 87.5007C30.8234 87.5007 31.0928 87.4257 31.3261 87.2674C31.4067 87.2119 39.4312 81.9455 50 81.9455C60.5327 81.9455 68.5961 87.2146 68.6739 87.2674C68.9128 87.4285 69.2711 87.5341 69.4544 87.5007C70.2238 87.4896 70.8876 86.8924 70.8876 86.1119C70.8876 85.712 70.721 85.3564 70.4488 85.1009Z" fill="#292F33"/>
<path d="M33.3343 50.003C36.4024 50.003 38.8896 45.6504 38.8896 40.2813C38.8896 34.9122 36.4024 30.5597 33.3343 30.5597C30.2663 30.5597 27.7791 34.9122 27.7791 40.2813C27.7791 45.6504 30.2663 50.003 33.3343 50.003Z" fill="#292F33"/>
<path d="M66.6657 50.003C69.7337 50.003 72.2209 45.6504 72.2209 40.2813C72.2209 34.9122 69.7337 30.5597 66.6657 30.5597C63.5976 30.5597 61.1105 34.9122 61.1105 40.2813C61.1105 45.6504 63.5976 50.003 66.6657 50.003Z" fill="#292F33"/>
<path d="M86.1117 38.8925C85.2646 38.8925 84.4341 38.5092 83.8869 37.7815C76.5512 28.0015 67.0518 27.7849 66.649 27.7821C65.1213 27.7654 63.8881 26.5155 63.8964 24.9906C63.9047 23.4601 65.138 22.2268 66.6657 22.2268C67.1768 22.2268 79.2677 22.3657 88.331 34.4483C89.2532 35.676 89.0032 37.4176 87.7755 38.337C87.2756 38.712 86.6923 38.8925 86.1117 38.8925ZM13.8883 38.8925C13.3105 38.8925 12.7244 38.712 12.2245 38.337C10.9968 37.4176 10.7496 35.676 11.6689 34.4483C20.7295 22.3657 32.8232 22.2268 33.3343 22.2268C34.8676 22.2268 36.1119 23.4712 36.1119 25.0045C36.1119 26.5349 34.8759 27.7765 33.3454 27.7821C32.9121 27.7876 23.4321 28.0209 16.1104 37.7815C15.5687 38.5092 14.7327 38.8925 13.8883 38.8925Z" fill="#292F33"/>
<path d="M41.6672 86.1119C41.6672 93.7837 35.4481 100 27.7791 100C20.1101 100 13.891 93.7837 13.891 86.1119C13.891 78.4402 25.0015 50.003 27.7791 50.003C30.5567 50.003 41.6672 78.4402 41.6672 86.1119Z" fill="#5DADEC"/>
</svg>
