<svg width="92" height="100" viewBox="0 0 92 100" fill="none" xmlns="http://www.w3.org/2000/svg">
<path d="M0.161789 13.9716C0.161789 13.9716 12.8839 0 26.2585 0C42.2454 0 46.9741 13.7955 46.9741 13.7955C46.9741 13.7955 48.6052 2.61827 60.0225 2.61827C71.4398 2.61827 78.1284 11.3505 78.1284 11.3505C78.1284 11.3505 68.8327 17.2884 66.0587 18.5095C58.749 21.7314 36.3736 28.4629 25.9349 25.6685C15.4962 22.8742 0.161789 13.9716 0.161789 13.9716Z" fill="#5C913B"/>
<path d="M44.3645 16.4166C44.3645 16.4166 47.0837 13.9129 60.0225 13.9129C77.095 13.9129 91.3386 27.3591 91.3386 50.0349C91.3386 82.2561 52.3031 100 52.3031 100C52.3031 100 0 96.9849 0 49.884C0 22.0555 17.6153 13.6223 28.7064 13.6223C41.6452 13.6223 44.3645 16.4166 44.3645 16.4166Z" fill="#FF886C"/>
<path d="M0.161789 13.9716C0.161789 13.9716 12.8839 0 26.2585 0C42.2454 0 46.9741 13.7955 46.9741 13.7955C46.9741 13.7955 36.3736 28.4656 25.9349 25.6713C15.4962 22.877 0.161789 13.9716 0.161789 13.9716V13.9716Z" fill="#77B255"/>
<path d="M57.4102 83.4801C56.9144 83.4801 56.4107 83.3264 55.9644 83.0106C54.764 82.1528 54.4404 80.4203 55.2416 79.1349C55.2807 79.0734 60.0225 71.0119 60.0225 52.7426C60.0225 34.7333 48.0754 24.291 47.9527 24.1876C46.828 23.2235 46.6453 21.4659 47.5456 20.2616C48.4486 19.0572 50.0901 18.8616 51.2148 19.8257C51.7864 20.3147 65.2418 32.0759 65.2418 52.7426C65.2418 72.9176 59.8163 81.865 59.5841 82.2366C59.083 83.0442 58.2531 83.4801 57.4102 83.4801V83.4801Z" fill="#DD2E44"/>
</svg>
